solid
facet normal 0.18679000 0.87868500 0.43934301
outer loop 
vertex 0.00000000 4.94534993 -5.00000000
vertex 0.00000000 -0.05465007 5.00000000
vertex 2.03359985 4.51305032 -5.00000000
endloop
endfacet
facet normal 0.52801502 0.72676098 0.43934000
outer loop 
vertex 2.03359985 4.51305032 -5.00000000
vertex 0.00000000 -0.05465007 5.00000000
vertex 3.71570015 3.29095006 -5.00000000
endloop
endfacet
facet normal 0.77798402 0.44913599 0.43933800
outer loop 
vertex 3.71570015 3.29095006 -5.00000000
vertex 0.00000000 -0.05465007 5.00000000
vertex 4.75520039 1.49035001 -5.00000000
endloop
endfacet
facet normal 0.89339602 0.09393700 0.43934101
outer loop 
vertex 4.75520039 1.49035001 -5.00000000
vertex 0.00000000 -0.05465007 5.00000000
vertex 4.97259998 -0.57725024 -5.00000000
endloop
endfacet
facet normal 0.85435200 -0.27759799 0.43934199
outer loop 
vertex 4.97259998 -0.57725024 -5.00000000
vertex 0.00000000 -0.05465007 5.00000000
vertex 4.33010006 -2.55465007 -5.00000000
endloop
endfacet
facet normal 0.66756600 -0.60111201 0.43934101
outer loop 
vertex 4.33010006 -2.55465007 -5.00000000
vertex 0.00000000 -0.05465007 5.00000000
vertex 2.93889999 -4.09965014 -5.00000000
endloop
endfacet
facet normal 0.36539200 -0.82065201 0.43933901
outer loop 
vertex 2.93889999 -4.09965014 -5.00000000
vertex 0.00000000 -0.05465007 5.00000000
vertex 1.03950024 -4.94534993 -5.00000000
endloop
endfacet
facet normal 0.00000000 -0.89832002 0.43934101
outer loop 
vertex 1.03950024 -4.94534993 -5.00000000
vertex 0.00000000 -0.05465007 5.00000000
vertex -1.03950024 -4.94534993 -5.00000000
endloop
endfacet
facet normal -0.36539200 -0.82065201 0.43933901
outer loop 
vertex -1.03950024 -4.94534993 -5.00000000
vertex 0.00000000 -0.05465007 5.00000000
vertex -2.93889999 -4.09965014 -5.00000000
endloop
endfacet
facet normal -0.66758603 -0.60109103 0.43933800
outer loop 
vertex -2.93889999 -4.09965014 -5.00000000
vertex 0.00000000 -0.05465007 5.00000000
vertex -4.33010006 -2.55454993 -5.00000000
endloop
endfacet
facet normal -0.85434902 -0.27761000 0.43934101
outer loop 
vertex -4.33010006 -2.55454993 -5.00000000
vertex 0.00000000 -0.05465007 5.00000000
vertex -4.97259998 -0.57725024 -5.00000000
endloop
endfacet
facet normal -0.89339602 0.09393700 0.43934101
outer loop 
vertex -4.97259998 -0.57725024 -5.00000000
vertex 0.00000000 -0.05465007 5.00000000
vertex -4.75519991 1.49035001 -5.00000000
endloop
endfacet
facet normal -0.77798402 0.44913599 0.43933800
outer loop 
vertex -4.75519991 1.49035001 -5.00000000
vertex 0.00000000 -0.05465007 5.00000000
vertex -3.71570015 3.29095006 -5.00000000
endloop
endfacet
facet normal -0.52801502 0.72676098 0.43934000
outer loop 
vertex -3.71570015 3.29095006 -5.00000000
vertex 0.00000000 -0.05465007 5.00000000
vertex -2.03359985 4.51305032 -5.00000000
endloop
endfacet
facet normal -0.18679000 0.87868500 0.43934301
outer loop 
vertex -2.03359985 4.51305032 -5.00000000
vertex 0.00000000 -0.05465007 5.00000000
vertex 0.00000000 4.94534993 -5.00000000
endloop
endfacet
facet normal -0.00000000 0.00000000 -1.00000000
outer loop 
vertex 2.03359985 4.51305032 -5.00000000
vertex 0.00000000 -0.05465007 -5.00000000
vertex 0.00000000 4.94534993 -5.00000000
endloop
endfacet
facet normal -0.00000000 0.00000000 -1.00000000
outer loop 
vertex 3.71570015 3.29095006 -5.00000000
vertex 0.00000000 -0.05465007 -5.00000000
vertex 2.03359985 4.51305032 -5.00000000
endloop
endfacet
facet normal -0.00000000 0.00000000 -1.00000000
outer loop 
vertex 4.75520039 1.49035001 -5.00000000
vertex 0.00000000 -0.05465007 -5.00000000
vertex 3.71570015 3.29095006 -5.00000000
endloop
endfacet
facet normal 0.00000000 0.00000000 -1.00000000
outer loop 
vertex 4.97259998 -0.57725024 -5.00000000
vertex 0.00000000 -0.05465007 -5.00000000
vertex 4.75520039 1.49035001 -5.00000000
endloop
endfacet
facet normal 0.00000000 0.00000000 -1.00000000
outer loop 
vertex 4.33010006 -2.55465007 -5.00000000
vertex 0.00000000 -0.05465007 -5.00000000
vertex 4.97259998 -0.57725024 -5.00000000
endloop
endfacet
facet normal 0.00000000 0.00000000 -1.00000000
outer loop 
vertex 2.93889999 -4.09965014 -5.00000000
vertex 0.00000000 -0.05465007 -5.00000000
vertex 4.33010006 -2.55465007 -5.00000000
endloop
endfacet
facet normal 0.00000000 0.00000000 -1.00000000
outer loop 
vertex 1.03950024 -4.94534993 -5.00000000
vertex 0.00000000 -0.05465007 -5.00000000
vertex 2.93889999 -4.09965014 -5.00000000
endloop
endfacet
facet normal 0.00000000 0.00000000 -1.00000000
outer loop 
vertex -1.03950024 -4.94534993 -5.00000000
vertex 0.00000000 -0.05465007 -5.00000000
vertex 1.03950024 -4.94534993 -5.00000000
endloop
endfacet
facet normal 0.00000000 -0.00000000 -1.00000000
outer loop 
vertex -2.93889999 -4.09965014 -5.00000000
vertex 0.00000000 -0.05465007 -5.00000000
vertex -1.03950024 -4.94534993 -5.00000000
endloop
endfacet
facet normal 0.00000000 -0.00000000 -1.00000000
outer loop 
vertex -4.33010006 -2.55454993 -5.00000000
vertex 0.00000000 -0.05465007 -5.00000000
vertex -2.93889999 -4.09965014 -5.00000000
endloop
endfacet
facet normal 0.00000000 -0.00000000 -1.00000000
outer loop 
vertex -4.97259998 -0.57725024 -5.00000000
vertex 0.00000000 -0.05465007 -5.00000000
vertex -4.33010006 -2.55454993 -5.00000000
endloop
endfacet
facet normal 0.00000000 -0.00000000 -1.00000000
outer loop 
vertex -4.75519991 1.49035001 -5.00000000
vertex 0.00000000 -0.05465007 -5.00000000
vertex -4.97259998 -0.57725024 -5.00000000
endloop
endfacet
facet normal -0.00000000 -0.00000000 -1.00000000
outer loop 
vertex -3.71570015 3.29095006 -5.00000000
vertex 0.00000000 -0.05465007 -5.00000000
vertex -4.75519991 1.49035001 -5.00000000
endloop
endfacet
facet normal -0.00000000 -0.00000000 -1.00000000
outer loop 
vertex -2.03359985 4.51305032 -5.00000000
vertex 0.00000000 -0.05465007 -5.00000000
vertex -3.71570015 3.29095006 -5.00000000
endloop
endfacet
facet normal -0.00000000 -0.00000000 -1.00000000
outer loop 
vertex 0.00000000 4.94534993 -5.00000000
vertex 0.00000000 -0.05465007 -5.00000000
vertex -2.03359985 4.51305032 -5.00000000
endloop
endfacet
endsolid
